<?xml version="1.0" ?><svg viewBox="0 0 32 32" xmlns="http://www.w3.org/2000/svg"><defs><style>.cls-1{fill:#fff;}</style></defs><title/><g id="Whatsapp"><path d="M29,3a3.35,3.35,0,0,0-2.48-1H5.5A3.35,3.35,0,0,0,3,3,3.35,3.35,0,0,0,2,5.5v21A3.35,3.35,0,0,0,3,29,3.35,3.35,0,0,0,5.5,30h21A3.52,3.52,0,0,0,30,26.49V5.5A3.35,3.35,0,0,0,29,3Z"/><path class="cls-1" d="M27.75,16.06a11.13,11.13,0,0,1-5.57,8.86,11.69,11.69,0,0,1-5.65,1.61H16.2a12.55,12.55,0,0,1-5.54-1.4l-3.16.95c-1.31.41-2.35.75-3.13,1,0,0-.07,0-.08-.11l-.09.15s.62-1.8,1.86-5.3a2,2,0,0,0,.12-.69A1.63,1.63,0,0,0,6,20.51,11.44,11.44,0,0,1,4.7,15.25,10.92,10.92,0,0,1,8,7.62,11.64,11.64,0,0,1,15.53,4.2h1.41a11.56,11.56,0,0,1,7.42,3.25,11.16,11.16,0,0,1,3.39,7.22ZM25.55,18A10.43,10.43,0,0,0,26,15.2a8.63,8.63,0,0,0-2.38-5.87A9.25,9.25,0,0,0,16.2,6h-.75a9.23,9.23,0,0,0-4.84,1.71A8.86,8.86,0,0,0,6.53,15.2a6.89,6.89,0,0,0,.09,1.1,8.89,8.89,0,0,0,1.15,3.6c.4.67.61,1,.62,1L8,21.78c-.52,1.53-.8,2.38-.86,2.55l3.7-1.16a10.28,10.28,0,0,0,4.22,1.52,9.59,9.59,0,0,0,1.06.07A9.71,9.71,0,0,0,20.07,24,9.39,9.39,0,0,0,25.55,18ZM22,17.94a1.58,1.58,0,0,1,0,.32,2.11,2.11,0,0,1-1.3,2,3.48,3.48,0,0,1-1.49.35H19a12.55,12.55,0,0,1-3-1A10.84,10.84,0,0,1,12,16a5.89,5.89,0,0,1-1.36-3.17c0-1.46.49-2.32,1.47-2.57a3.08,3.08,0,0,1,.61-.07,1.49,1.49,0,0,1,.54.11,5.47,5.47,0,0,1,.68,1.27A11.62,11.62,0,0,1,14.48,13a1.29,1.29,0,0,1-.41.77,8.23,8.23,0,0,0-.52.68,3.59,3.59,0,0,0,.76,1.22,7.27,7.27,0,0,0,2.06,1.8,3.83,3.83,0,0,0,1.37.57h0c.12,0,.38-.25.75-.72s.61-.7.71-.7h0a5.63,5.63,0,0,1,1.49.6A7.14,7.14,0,0,1,22,17.94Z"/></g></svg>