<?xml version="1.0" ?><svg viewBox="0 0 32 32" xmlns="http://www.w3.org/2000/svg"><title/><g id="Instagram"><path d="M26.49,30H5.5A3.35,3.35,0,0,1,3,29a3.35,3.35,0,0,1-1-2.48V5.5A3.35,3.35,0,0,1,3,3,3.35,3.35,0,0,1,5.5,2h21A3.35,3.35,0,0,1,29,3,3.35,3.35,0,0,1,30,5.5v21A3.52,3.52,0,0,1,26.49,30ZM24.74,10.56a3.45,3.45,0,0,0-3.48-3.49H10.71a3.47,3.47,0,0,0-3.48,3.49V21.1a3.45,3.45,0,0,0,3.48,3.49H21.26a3.43,3.43,0,0,0,3.48-3.49Zm-8.73.9a4.09,4.09,0,0,0-1.38.24,5.36,5.36,0,0,0-1.24.63H9v-.87a2.56,2.56,0,0,1,2.61-2.62h8.75a2.63,2.63,0,0,1,1.89.75A2.48,2.48,0,0,1,23,11.46v.87H18.6a6.14,6.14,0,0,0-1.22-.63A3.87,3.87,0,0,0,16,11.46Zm4.35,11.41H11.61a2.48,2.48,0,0,1-1.86-.78A2.57,2.57,0,0,1,9,20.24v-7h3.49a5.49,5.49,0,0,0-.63,1.23,3.82,3.82,0,0,0-.25,1.4A4.19,4.19,0,0,0,12,17.55a5,5,0,0,0,.93,1.39,4.28,4.28,0,0,0,1.4.95,4.24,4.24,0,0,0,1.72.35,4.29,4.29,0,0,0,3.08-1.3A5,5,0,0,0,20,17.55a4.19,4.19,0,0,0,.35-1.69,3.82,3.82,0,0,0-.25-1.4,6.37,6.37,0,0,0-.6-1.23H23v7a2.52,2.52,0,0,1-.78,1.85A2.57,2.57,0,0,1,20.36,22.87ZM16,13.23a2.55,2.55,0,0,1,1.85.75,2.63,2.63,0,0,1,0,3.74,2.55,2.55,0,0,1-1.85.75,2.63,2.63,0,0,1-1.9-.75,2.66,2.66,0,0,1,0-3.74A2.63,2.63,0,0,1,16,13.23Zm3.5-1.77h1.75V9.71H19.51Z"/></g></svg>