<?xml version="1.0" encoding="utf-8"?>
<!-- Generator: Adobe Illustrator 24.2.3, SVG Export Plug-In . SVG Version: 6.00 Build 0)  -->
<svg version="1.1" id="Camada_1" xmlns="http://www.w3.org/2000/svg" xmlns:xlink="http://www.w3.org/1999/xlink" x="0px" y="0px"
	 viewBox="0 0 312.3 67.7" style="enable-background:new 0 0 312.3 67.7;" xml:space="preserve">
<style type="text/css">
	.st0{enable-background:new    ;}
	.st1{fill:none;stroke:#000000;stroke-width:2;stroke-miterlimit:10;}
</style>
<g class="st0">
	<path d="M8.6,8v23.6c0,2.5-0.4,4.5-1.2,6.1c-0.8,1.5-2,2.8-3.5,3.8c-1.1,0.7-1.8,1-2.1,1s-0.5-0.1-0.6-0.3C1,42,0.9,41.8,0.9,41.6
		s0.1-0.2,0.3-0.4c1.3-0.9,2.1-1.5,2.4-2c1.2-1.3,1.8-3.2,1.8-5.8V8c0-0.9-0.6-1.4-1.7-1.5h-1C2.4,6.4,2.3,6.3,2.3,6
		s0.2-0.5,0.5-0.5L7,5.6l3.7-0.1c0.4,0,0.6,0.1,0.6,0.4s-0.2,0.5-0.5,0.6l-0.6,0.1C9.1,6.7,8.6,7.2,8.6,8z"/>
	<path d="M22.1,22V8c0-0.9-0.6-1.4-1.7-1.5l-1.1-0.1c-0.3,0-0.4-0.2-0.4-0.5s0.2-0.5,0.5-0.5l4.2,0.1l3.7-0.1c0.4,0,0.6,0.1,0.6,0.4
		s-0.2,0.5-0.5,0.6l-0.6,0.1c-1,0.2-1.5,0.7-1.5,1.5v14c0,2.3,0.7,4.1,2.1,5.4s3.2,1.9,5.4,1.9s4.1-0.7,5.5-2s2.1-3.1,2.1-5.3V8
		c0-0.8-0.5-1.3-1.5-1.5l-0.6-0.1c-0.3,0-0.5-0.2-0.5-0.5s0.2-0.4,0.6-0.4l2.9,0.1l3.6-0.1c0.3,0,0.5,0.1,0.5,0.4S45.3,6.4,45,6.4
		l-1.1,0.1C42.6,6.7,42,7.2,42,8v14c0,3-0.9,5.4-2.8,7.2s-4.2,2.7-7.1,2.7s-5.3-0.9-7.2-2.8C23,27.3,22.1,24.9,22.1,22z"/>
	<path d="M58.7,8v20c0,0.5,0.2,0.9,0.5,1.2c0.3,0.3,0.8,0.5,1.3,0.5h5.4c1.3,0,2.4-0.3,3.4-0.9s1.6-1.5,1.9-2.8
		c0.1-0.4,0.4-0.6,0.8-0.6s0.6,0.2,0.5,0.7L71.9,30c0,0.4-0.2,0.8-0.5,1.1c-0.3,0.3-0.7,0.4-1.1,0.4H57.1l-4.2,0.1
		c-0.3,0-0.5-0.2-0.5-0.5s0.1-0.5,0.4-0.5l1.1-0.1c0.5,0,0.9-0.2,1.2-0.5s0.5-0.6,0.5-1.1V8c0-0.9-0.6-1.4-1.7-1.5l-1.1-0.1
		c-0.3,0-0.4-0.2-0.4-0.5s0.2-0.5,0.5-0.5l4.2,0.1l3.7-0.1c0.4,0,0.6,0.1,0.6,0.4s-0.2,0.5-0.5,0.6l-0.6,0.1
		C59.2,6.7,58.7,7.2,58.7,8z"/>
	<path d="M80.5,31.6c-0.3,0-0.5-0.2-0.5-0.5s0.1-0.5,0.4-0.5l0.6-0.1c1-0.1,1.5-0.6,1.5-1.5V8c0-0.9-0.6-1.4-1.7-1.5l-1.1-0.1
		c-0.3,0-0.4-0.2-0.4-0.5s0.2-0.5,0.5-0.5L84,5.6l3.7-0.1c0.4,0,0.6,0.1,0.6,0.4s-0.2,0.5-0.5,0.6l-0.6,0.1c-1,0.2-1.5,0.7-1.5,1.5
		v21c0,0.4,0.2,0.8,0.5,1.1c0.3,0.3,0.7,0.4,1.2,0.5l1.1,0.1c0.3,0,0.4,0.2,0.4,0.5c0,0.1-0.1,0.3-0.2,0.4s-0.2,0.1-0.4,0.1
		l-4.2-0.1L80.5,31.6z"/>
	<path d="M99.9,29c0,0.1-0.1,0.3-0.1,0.5s0.1,0.4,0.3,0.6c0.2,0.2,0.5,0.4,0.8,0.4l0.8,0.1c0.3,0,0.5,0.2,0.5,0.5s-0.2,0.5-0.6,0.5
		l-3.2-0.1L95,31.6c-0.3,0-0.5-0.2-0.5-0.5s0.1-0.5,0.4-0.5l0.7-0.1c1.1-0.1,1.8-0.6,2.1-1.5l9.5-23.4c0.1-0.3,0.4-0.4,0.9-0.4
		s0.8,0.1,0.9,0.4l9.5,23.4c0.3,0.9,1,1.4,2.1,1.5l0.8,0.1c0.1,0,0.2,0,0.3,0.1c0.1,0.1,0.1,0.2,0.1,0.3c0,0.4-0.2,0.6-0.5,0.6
		l-4.2-0.1l-3.8,0.1c-0.3,0-0.5-0.1-0.5-0.4s0.1-0.5,0.4-0.6l0.8-0.1c0.3,0,0.6-0.1,0.8-0.4c0.2-0.2,0.3-0.4,0.3-0.6s0-0.4-0.1-0.5
		l-2.2-5.7c-0.1-0.2-0.3-0.4-0.6-0.4h-9.6c-0.3,0-0.5,0.1-0.6,0.4L99.9,29z M103.3,21.3h8.2c0.3,0,0.4-0.1,0.3-0.4l-4.4-11.3
		L103,20.9C103,21.2,103.1,21.3,103.3,21.3z"/>
	<path d="M161.9,9c2.3,2.3,3.5,5.3,3.5,9.1s-1.2,6.9-3.6,9.5c-2.4,2.6-5.5,3.9-9.3,3.9h-6.4l-4.6,0.2c-0.3,0-0.5-0.2-0.5-0.5
		s0.1-0.5,0.4-0.5l1.1-0.1c0.5,0,0.9-0.2,1.2-0.5s0.5-0.6,0.5-1.1V8c0-0.9-0.6-1.4-1.7-1.5l-1.1-0.1c-0.3,0-0.4-0.2-0.4-0.5
		s0.2-0.5,0.5-0.5l4.6,0.1h6.4C156.4,5.6,159.6,6.8,161.9,9z M159.8,11.2c-0.7-1.2-1.7-2.1-3-2.8c-1.3-0.7-2.7-1-4.3-1h-3.3
		c-0.5,0-1,0.1-1.3,0.4c-0.3,0.3-0.5,0.7-0.5,1.3v19c0,0.5,0.2,0.9,0.5,1.2c0.3,0.3,0.8,0.5,1.3,0.5h3.5c2.8,0,5.1-1,6.8-2.9
		s2.5-4.5,2.5-7.6S161.2,13.5,159.8,11.2z"/>
	<path d="M191.9,31.5H178l-4.2,0.1c-0.3,0-0.5-0.2-0.5-0.5s0.1-0.5,0.4-0.5l1.1-0.1c0.5,0,0.9-0.2,1.2-0.5s0.5-0.6,0.5-1.1V8
		c0-0.9-0.6-1.4-1.7-1.5l-1.1-0.1c-0.3,0-0.4-0.2-0.4-0.5s0.2-0.5,0.5-0.5l4.2,0.1h13.1c0.5,0,0.8,0.1,1.1,0.4s0.5,0.6,0.5,1.1
		l0.5,3.4c0,0.4-0.1,0.7-0.5,0.7s-0.7-0.2-0.8-0.6c-0.4-1.2-0.9-2-1.7-2.5c-0.7-0.5-1.8-0.7-3.1-0.7h-5.8c-0.5,0-1,0.2-1.3,0.5
		s-0.5,0.7-0.5,1.3v7.8c0,0.3,0.2,0.5,0.5,0.5h6.9c0.3,0,0.6-0.1,0.8-0.3c0.2-0.2,0.3-0.3,0.4-0.5s0.2-0.4,0.3-0.8l0.1-0.5
		c0.1-0.3,0.3-0.4,0.6-0.4s0.4,0.2,0.4,0.5l-0.1,3.1l0.1,3c0,0.3-0.2,0.5-0.5,0.6c-0.3,0-0.5-0.1-0.5-0.4l-0.1-0.7
		c-0.2-1.3-0.7-1.9-1.5-1.9H180c-0.3,0-0.4,0.2-0.4,0.5v8.6c0,0.5,0.2,0.9,0.5,1.2c0.3,0.3,0.8,0.5,1.3,0.5h6.1
		c1.3,0,2.4-0.3,3.3-0.9c0.9-0.6,1.6-1.5,1.9-2.8c0.1-0.4,0.3-0.6,0.6-0.6s0.5,0.1,0.6,0.2s0.2,0.3,0.1,0.5l-0.6,3.8
		c0,0.4-0.2,0.8-0.5,1.1C192.7,31.3,192.4,31.5,191.9,31.5z"/>
	<path d="M218.3,6c0-0.3,0.2-0.5,0.6-0.5l3.2,0.1l3.4-0.1c0.3,0,0.5,0.2,0.5,0.5s-0.1,0.5-0.4,0.5l-0.7,0.1
		c-1.1,0.1-1.8,0.6-2.1,1.5l-9.1,23.4c-0.1,0.3-0.4,0.4-0.8,0.4c-0.5,0-0.7-0.1-0.9-0.4L202.8,8c-0.4-0.9-1.1-1.4-2.1-1.5l-0.8-0.1
		c-0.1,0-0.2,0-0.3-0.1s-0.1-0.2-0.1-0.3c0-0.4,0.2-0.6,0.5-0.6l3.9,0.1l4.1-0.1c0.3,0,0.5,0.1,0.5,0.4s-0.1,0.5-0.4,0.6l-0.8,0.1
		c-0.4,0-0.7,0.2-0.9,0.5s-0.2,0.7-0.1,1l7.1,19.4L220.6,8c0.1-0.4,0.1-0.7-0.1-1s-0.5-0.5-1-0.5l-0.8-0.1
		C218.5,6.4,218.3,6.3,218.3,6z"/>
	<path d="M250.2,31.5h-13.9l-4.2,0.1c-0.3,0-0.5-0.2-0.5-0.5s0.1-0.5,0.4-0.5l1.1-0.1c0.5,0,0.9-0.2,1.2-0.5s0.5-0.6,0.5-1.1V8
		c0-0.9-0.6-1.4-1.7-1.5L232,6.4c-0.3,0-0.4-0.2-0.4-0.5s0.2-0.5,0.5-0.5l4.2,0.1h13.1c0.5,0,0.8,0.1,1.1,0.4S251,6.5,251,7l0.5,3.4
		c0,0.4-0.1,0.7-0.5,0.7s-0.7-0.2-0.8-0.6c-0.4-1.2-0.9-2-1.7-2.5c-0.7-0.5-1.8-0.7-3.1-0.7h-5.8c-0.5,0-1,0.2-1.3,0.5
		C238.2,8.1,238,8.5,238,9v7.8c0,0.3,0.2,0.5,0.5,0.5h6.9c0.3,0,0.6-0.1,0.8-0.3c0.2-0.2,0.3-0.3,0.4-0.5c0.1-0.1,0.2-0.4,0.3-0.8
		l0.1-0.5c0.1-0.3,0.3-0.4,0.6-0.4s0.4,0.2,0.4,0.5l-0.1,3.1l0.1,3c0,0.3-0.2,0.5-0.5,0.6c-0.3,0-0.5-0.1-0.5-0.4l-0.1-0.7
		c-0.2-1.3-0.7-1.9-1.5-1.9h-6.9c-0.3,0-0.4,0.2-0.4,0.5v8.6c0,0.5,0.2,0.9,0.5,1.2c0.3,0.3,0.8,0.5,1.3,0.5h6.1
		c1.3,0,2.4-0.3,3.3-0.9c0.9-0.6,1.6-1.5,1.9-2.8c0.1-0.4,0.3-0.6,0.6-0.6s0.5,0.1,0.6,0.2s0.2,0.3,0.1,0.5l-0.6,3.8
		c0,0.4-0.2,0.8-0.5,1.1S250.7,31.5,250.2,31.5z"/>
	<path d="M281.6,26V8c0-0.9-0.6-1.4-1.7-1.5l-1.1-0.1c-0.3,0-0.4-0.2-0.4-0.5s0.2-0.4,0.5-0.4l3.6,0.1l2.9-0.1
		c0.4,0,0.6,0.1,0.6,0.4s-0.2,0.5-0.5,0.5l-0.6,0.1c-1,0.2-1.5,0.7-1.5,1.5v23.4c0,0.3-0.1,0.4-0.4,0.4h-0.5c-0.6,0-1.1-0.3-1.6-0.9
		L265.3,11c0,0-0.1-0.1-0.2-0.1S265,11,265,11.3V29c0,0.8,0.5,1.3,1.5,1.5l0.6,0.1c0.3,0,0.5,0.2,0.5,0.5s-0.2,0.4-0.6,0.4l-2.9-0.1
		l-3.6,0.1c-0.3,0-0.5-0.1-0.5-0.4s0.1-0.5,0.4-0.5l1.1-0.1c1.1-0.1,1.7-0.6,1.7-1.5V8c0-0.9-0.5-1.4-1.5-1.5L261,6.4
		c-0.3,0-0.4-0.2-0.4-0.5s0.2-0.5,0.6-0.5l3,0.1c0.7,0,1.3,0.3,1.6,0.7L281.2,26c0.1,0.1,0.2,0.1,0.3,0.1S281.6,26.1,281.6,26z"/>
	<path d="M311.4,24.8c0,2.3-0.9,4.1-2.6,5.3c-1.7,1.2-3.8,1.8-6.3,1.8s-4.5-0.3-6.1-0.9s-2.4-1.2-2.4-2v-4.3c0-0.5,0.2-0.8,0.6-0.8
		c0.3,0,0.5,0.2,0.7,0.7c0.6,1.9,1.5,3.3,2.5,4.2c1,0.9,2.5,1.4,4.3,1.4s3.3-0.4,4.5-1.3c1.1-0.8,1.7-2,1.7-3.5c0-1.6-0.9-3-2.7-4.1
		c-0.8-0.5-1.7-1-2.7-1.4c-1-0.5-2-1-3-1.5s-1.9-1.1-2.7-1.6c-1.8-1.3-2.7-3-2.7-5s0.8-3.6,2.3-4.8c1.6-1.2,3.4-1.8,5.5-1.8
		s3.9,0.3,5.4,0.8s2.2,1.1,2.2,1.8v3.7c0,0.5-0.2,0.7-0.5,0.7s-0.6-0.2-0.8-0.7c-0.5-1.6-1.2-2.7-2-3.5s-2.1-1.1-3.8-1.1
		s-3,0.4-3.9,1.2c-1,0.8-1.4,1.8-1.4,2.9c0,1.2,0.5,2.2,1.4,3c1,0.8,2.1,1.6,3.5,2.3c1.4,0.7,2.7,1.3,4.1,2s2.5,1.6,3.5,2.7
		C310.9,22.1,311.4,23.4,311.4,24.8z"/>
</g>
<line class="st1" x1="0" y1="59.2" x2="38" y2="59.2"/>
<g>
	<path d="M52.5,63.3c-0.7-0.2-1.3-0.5-1.8-0.9l0.7-1.4c0.4,0.3,0.9,0.6,1.6,0.8c0.6,0.2,1.2,0.3,1.9,0.3c0.8,0,1.4-0.1,1.7-0.3
		c0.4-0.2,0.6-0.5,0.6-0.9c0-0.3-0.1-0.5-0.3-0.7s-0.5-0.3-0.8-0.4s-0.8-0.2-1.3-0.4c-0.8-0.2-1.4-0.4-1.9-0.5
		c-0.5-0.2-0.9-0.5-1.3-0.8c-0.4-0.4-0.5-0.9-0.5-1.5c0-0.5,0.2-1,0.5-1.5c0.3-0.4,0.8-0.8,1.4-1.1c0.6-0.3,1.4-0.4,2.3-0.4
		c0.6,0,1.3,0.1,1.9,0.2s1.1,0.4,1.6,0.6L58,55.8c-0.5-0.3-0.9-0.4-1.4-0.6c-0.5-0.1-1-0.2-1.4-0.2c-0.8,0-1.3,0.1-1.7,0.4
		c-0.4,0.2-0.6,0.6-0.6,1c0,0.3,0.1,0.5,0.3,0.7s0.5,0.3,0.8,0.4s0.8,0.2,1.3,0.4c0.8,0.2,1.4,0.3,1.9,0.5s0.9,0.5,1.3,0.8
		c0.4,0.4,0.5,0.9,0.5,1.5c0,0.5-0.2,1-0.5,1.5c-0.3,0.4-0.8,0.8-1.4,1c-0.6,0.3-1.4,0.4-2.3,0.4C54,63.6,53.2,63.5,52.5,63.3z"/>
	<path d="M63.4,53.7h1.9v9.8h-1.9V53.7z"/>
	<path d="M80.2,63.5V57l-3.4,5.4h-0.9l-3.4-5.3v6.4h-1.8v-9.8h1.6l4.1,6.5l4.1-6.5H82v9.8C82,63.5,80.2,63.5,80.2,63.5z"/>
	<path d="M93.9,54.1c0.7,0.3,1.2,0.7,1.5,1.2s0.5,1.1,0.5,1.9c0,0.7-0.2,1.3-0.5,1.9s-0.9,0.9-1.5,1.2c-0.7,0.3-1.5,0.4-2.4,0.4
		h-2.3v2.8h-1.9v-9.8h4.3C92.5,53.7,93.3,53.8,93.9,54.1z M93.4,58.6c0.4-0.3,0.7-0.8,0.7-1.4c0-0.6-0.2-1.1-0.7-1.4
		c-0.4-0.3-1.1-0.5-1.9-0.5h-2.3v3.9h2.3C92.3,59.1,93,58.9,93.4,58.6z"/>
	<path d="M100.4,53.7h1.9V62h5.4v1.5h-7.4L100.4,53.7L100.4,53.7z"/>
	<path d="M119.6,61.9v1.5h-7.8v-9.8h7.6v1.5h-5.7v2.5h5v1.5h-5v2.7L119.6,61.9L119.6,61.9z"/>
	<path d="M125.1,63.3c-0.7-0.2-1.3-0.5-1.8-0.9L124,61c0.4,0.3,0.9,0.6,1.6,0.8c0.6,0.2,1.2,0.3,1.9,0.3c0.8,0,1.4-0.1,1.7-0.3
		c0.4-0.2,0.6-0.5,0.6-0.9c0-0.3-0.1-0.5-0.3-0.7s-0.5-0.3-0.8-0.4s-0.8-0.2-1.3-0.4c-0.8-0.2-1.4-0.4-1.9-0.5
		c-0.5-0.2-0.9-0.5-1.3-0.8c-0.4-0.4-0.5-0.9-0.5-1.5c0-0.5,0.2-1,0.5-1.5c0.3-0.4,0.8-0.8,1.4-1.1s1.4-0.4,2.3-0.4
		c0.6,0,1.3,0.1,1.9,0.2s1.1,0.4,1.6,0.6l-0.6,1.4c-0.5-0.3-0.9-0.4-1.4-0.6c-0.5-0.1-1-0.2-1.4-0.2c-0.8,0-1.3,0.1-1.7,0.4
		c-0.4,0.2-0.6,0.6-0.6,1c0,0.3,0.1,0.5,0.3,0.7c0.2,0.2,0.5,0.3,0.8,0.4s0.8,0.2,1.3,0.4c0.8,0.2,1.4,0.3,1.9,0.5s0.9,0.5,1.3,0.8
		c0.4,0.4,0.5,0.9,0.5,1.5c0,0.5-0.2,1-0.5,1.5c-0.3,0.4-0.8,0.8-1.4,1c-0.6,0.3-1.4,0.4-2.3,0.4C126.6,63.6,125.9,63.5,125.1,63.3z
		"/>
	<path d="M150.4,61.9v1.5h-7.8v-9.8h7.6v1.5h-5.7v2.5h5v1.5h-5v2.7L150.4,61.9L150.4,61.9z"/>
	<path d="M162.5,63.3c-0.7-0.2-1.3-0.5-1.8-0.9l0.7-1.4c0.4,0.3,0.9,0.6,1.6,0.8c0.6,0.2,1.2,0.3,1.9,0.3c0.8,0,1.4-0.1,1.7-0.3
		s0.6-0.5,0.6-0.9c0-0.3-0.1-0.5-0.3-0.7s-0.5-0.3-0.8-0.4s-0.8-0.2-1.3-0.4c-0.8-0.2-1.4-0.4-1.9-0.5c-0.5-0.2-0.9-0.5-1.3-0.8
		c-0.4-0.4-0.5-0.9-0.5-1.5c0-0.5,0.2-1,0.5-1.5s0.8-0.8,1.4-1.1c0.6-0.3,1.4-0.4,2.3-0.4c0.6,0,1.3,0.1,1.9,0.2
		c0.6,0.1,1.1,0.4,1.6,0.6l-0.6,1.4c-0.5-0.3-0.9-0.4-1.4-0.6c-0.5-0.1-1-0.2-1.4-0.2c-0.8,0-1.3,0.1-1.7,0.4
		c-0.4,0.2-0.6,0.6-0.6,1c0,0.3,0.1,0.5,0.3,0.7s0.5,0.3,0.8,0.4s0.8,0.2,1.3,0.4c0.8,0.2,1.4,0.3,1.9,0.5s0.9,0.5,1.3,0.8
		c0.4,0.4,0.5,0.9,0.5,1.5c0,0.5-0.2,1-0.5,1.5s-0.8,0.8-1.4,1c-0.6,0.3-1.4,0.4-2.3,0.4C164,63.6,163.3,63.5,162.5,63.3z"/>
	<path d="M180.2,61.2H175l-1,2.3h-2l4.7-9.8h1.9l4.7,9.8h-2L180.2,61.2z M179.6,59.8l-2-4.3l-1.9,4.3H179.6z"/>
	<path d="M187.9,62.5c-0.8-0.8-1.2-1.9-1.2-3.3v-5.5h1.9v5.5c0,1.9,0.9,2.9,2.6,2.9c1.8,0,2.6-1,2.6-2.9v-5.5h1.9v5.5
		c0,1.4-0.4,2.5-1.2,3.3s-1.9,1.1-3.4,1.1S188.7,63.2,187.9,62.5z"/>
	<path d="M201,53.7h4.6c1.1,0,2.1,0.2,3,0.6c0.9,0.4,1.5,1,2,1.7s0.7,1.6,0.7,2.6s-0.2,1.8-0.7,2.6c-0.5,0.7-1.1,1.3-2,1.7
		s-1.8,0.6-3,0.6H201V53.7z M205.5,61.9c0.8,0,1.4-0.1,2-0.4s1-0.7,1.3-1.2s0.5-1.1,0.5-1.8s-0.2-1.3-0.5-1.8s-0.8-0.9-1.3-1.2
		s-1.3-0.4-2-0.4H203v6.7h2.5V61.9z"/>
	<path d="M222.4,61.2h-5.2l-1,2.3h-2l4.7-9.8h1.9l4.7,9.8h-2L222.4,61.2z M221.7,59.8l-2-4.3l-1.9,4.3H221.7z M220.6,50.9h2.2
		l-2.6,1.9h-1.6L220.6,50.9z"/>
	<path d="M238.2,53.7l-4.5,9.8h-1.9l-4.6-9.8h2.1l3.5,7.6l3.5-7.6H238.2z"/>
	<path d="M249.6,61.9v1.5h-7.8v-9.8h7.6v1.5h-5.7v2.5h5v1.5h-5v2.7L249.6,61.9L249.6,61.9z"/>
	<path d="M254.2,53.7h1.9V62h5.4v1.5h-7.4L254.2,53.7L254.2,53.7z"/>
</g>
<line class="st1" x1="274.3" y1="59.2" x2="312.3" y2="59.2"/>
</svg>
